<svg xmlns="http://www.w3.org/2000/svg" version="1.1" xmlns:xlink="http://www.w3.org/1999/xlink" xmlns:svgjs="http://svgjs.dev/svgjs" width="2000" height="373" viewBox="0 0 2000 373"><g transform="matrix(1,0,0,1,-1.2121212121212466,0.3529064158854567)"><svg viewBox="0 0 396 74" data-background-color="#001f3f" preserveAspectRatio="xMidYMid meet" height="373" width="2000" xmlns="http://www.w3.org/2000/svg" xmlns:xlink="http://www.w3.org/1999/xlink"><g id="tight-bounds" transform="matrix(1,0,0,1,0.2400000000000091,-0.07001360529631029)"><svg viewBox="0 0 395.52 74.1400272105926" height="74.1400272105926" width="395.52"><g><svg viewBox="0 0 395.52 74.1400272105926" height="74.1400272105926" width="395.52"><g><svg viewBox="0 0 506.73260530065977 94.98677474081057" height="74.1400272105926" width="395.52"><g transform="matrix(1,0,0,1,111.21260530065977,13.127694627709715)"><svg viewBox="0 0 395.52 68.73138548539114" height="68.73138548539114" width="395.52"><g id="textblocktransform"><svg viewBox="0 0 395.52 68.73138548539114" height="68.73138548539114" width="395.52" id="textblock"><g><svg viewBox="0 0 395.52 68.73138548539114" height="68.73138548539114" width="395.52"><g transform="matrix(1,0,0,1,0,0)"><svg width="395.52" viewBox="3 -36.01 207.21 36.01" height="68.73138548539114" data-palette-color="#ffffff"><path d="M3.71-30L3.71-35.01 31.2-35.01 31.2-33.5 11.35-5 31.2-5 31.2 0 3 0 3-1.49 22.85-30 3.71-30ZM60.2-21.19L60.2-10.55 42.99-10.55 42.99-4.81 60.2-4.81 60.2 0 42.99 0Q42.01 0 41.14-0.38 40.26-0.76 39.61-1.4 38.96-2.05 38.58-2.93 38.21-3.81 38.21-4.81L38.21-4.81 38.21-21.19Q38.21-22.19 38.58-23.07 38.96-23.95 39.61-24.6 40.26-25.24 41.14-25.62 42.01-26 42.99-26L42.99-26 55.39-26Q56.39-26 57.27-25.62 58.15-25.24 58.8-24.6 59.45-23.95 59.82-23.07 60.2-22.19 60.2-21.19L60.2-21.19ZM55.39-21.19L42.99-21.19 42.99-15.36 55.39-15.36 55.39-21.19ZM91.21-21.19L91.21 0 86.4 0 86.4-21.19 72.99-21.19 72.99 0 68.21 0 68.21-26 72.99-26 72.99-21.41Q73.04-22.36 73.43-23.21 73.82-24.05 74.47-24.67 75.12-25.29 75.97-25.65 76.83-26 77.8-26L77.8-26 86.4-26Q87.4-26 88.28-25.62 89.16-25.24 89.8-24.6 90.45-23.95 90.83-23.07 91.21-22.19 91.21-21.19L91.21-21.19ZM99.46-26L104.26-26 104.26 0 99.46 0 99.46-26ZM99.21-31.01L99.21-36.01 104.51-36.01 104.51-31.01 99.21-31.01ZM111-21.19L111-26 117.35-26 117.35-34.01 122.16-34.01 122.16-26 130.7-26 130.7-21.19 122.16-21.19 122.16-4.81 130.7-4.81 130.7 0 122.16 0Q121.18 0 120.3-0.38 119.42-0.76 118.76-1.4 118.11-2.05 117.73-2.93 117.35-3.81 117.35-4.81L117.35-4.81 117.35-21.19 111-21.19ZM161.71-21.19L161.71 0 156.9 0 156.9-21.19 143.49-21.19 143.49 0 138.71 0 138.71-36.01 143.49-36.01 143.49-21.41Q143.54-22.36 143.93-23.21 144.32-24.05 144.97-24.67 145.62-25.29 146.47-25.65 147.33-26 148.3-26L148.3-26 156.9-26Q157.9-26 158.78-25.62 159.66-25.24 160.3-24.6 160.95-23.95 161.33-23.07 161.71-22.19 161.71-21.19L161.71-21.19ZM180.7-35.01L185.7-35.01 199.2 0 194.2 0 191.1-8.06 175.3-8.06 172.2 0 167.2 0 180.7-35.01ZM183.21-28.49L177.21-13.06 189.17-13.06 183.21-28.49ZM205.21-35.01L210.21-35.01 210.21 0 205.21 0 205.21-35.01Z" opacity="1" transform="matrix(1,0,0,1,0,0)" fill="#ffffff" class="wordmark-text-0" data-fill-palette-color="primary" id="text-0"></path></svg></g></svg></g></svg></g></svg></g><g><svg viewBox="0 0 94.98677474081057 94.98677474081057" height="94.98677474081057" width="94.98677474081057"><g><svg xmlns="http://www.w3.org/2000/svg" xml:space="preserve" viewBox="5 5 90 90" x="0" y="0" height="94.98677474081057" width="94.98677474081057" class="icon-icon-0" data-fill-palette-color="accent" id="icon-0"></svg></g></svg></g></svg></g></svg></g><defs></defs><mask id="8a9987fb-7eb2-4376-8f65-6216aa6ed2e0"><g id="SvgjsG1768"><svg viewBox="0 0 395.52 74.1400272105926" height="74.1400272105926" width="395.52"><g><svg viewBox="0 0 395.52 74.1400272105926" height="74.1400272105926" width="395.52"><g><svg viewBox="0 0 506.73260530065977 94.98677474081057" height="74.1400272105926" width="395.52"><g transform="matrix(1,0,0,1,111.21260530065977,13.127694627709715)"><svg viewBox="0 0 395.52 68.73138548539114" height="68.73138548539114" width="395.52"><g id="SvgjsG1767"><svg viewBox="0 0 395.52 68.73138548539114" height="68.73138548539114" width="395.52" id="SvgjsSvg1766"><g><svg viewBox="0 0 395.52 68.73138548539114" height="68.73138548539114" width="395.52"><g transform="matrix(1,0,0,1,0,0)"><svg width="395.52" viewBox="3 -36.01 207.21 36.01" height="68.73138548539114" data-palette-color="#ffffff"><path d="M3.71-30L3.71-35.01 31.2-35.01 31.2-33.5 11.35-5 31.2-5 31.2 0 3 0 3-1.49 22.85-30 3.71-30ZM60.2-21.19L60.2-10.55 42.99-10.55 42.99-4.81 60.2-4.81 60.2 0 42.99 0Q42.01 0 41.14-0.38 40.26-0.76 39.61-1.4 38.96-2.05 38.58-2.93 38.21-3.81 38.21-4.81L38.21-4.81 38.21-21.19Q38.21-22.19 38.58-23.07 38.96-23.95 39.61-24.6 40.26-25.24 41.14-25.62 42.01-26 42.99-26L42.99-26 55.39-26Q56.39-26 57.27-25.62 58.15-25.24 58.8-24.6 59.45-23.95 59.82-23.07 60.2-22.19 60.2-21.19L60.2-21.19ZM55.39-21.19L42.99-21.19 42.99-15.36 55.39-15.36 55.39-21.19ZM91.21-21.19L91.21 0 86.4 0 86.4-21.19 72.99-21.19 72.99 0 68.21 0 68.21-26 72.99-26 72.99-21.41Q73.04-22.36 73.43-23.21 73.82-24.05 74.47-24.67 75.12-25.29 75.97-25.65 76.83-26 77.8-26L77.8-26 86.4-26Q87.4-26 88.28-25.62 89.16-25.24 89.8-24.6 90.45-23.95 90.83-23.07 91.21-22.19 91.21-21.19L91.21-21.19ZM99.46-26L104.26-26 104.26 0 99.46 0 99.46-26ZM99.21-31.01L99.21-36.01 104.51-36.01 104.51-31.01 99.21-31.01ZM111-21.19L111-26 117.35-26 117.35-34.01 122.16-34.01 122.16-26 130.7-26 130.7-21.19 122.16-21.19 122.16-4.81 130.7-4.81 130.7 0 122.16 0Q121.18 0 120.3-0.38 119.42-0.76 118.76-1.4 118.11-2.05 117.73-2.93 117.35-3.81 117.35-4.81L117.35-4.81 117.35-21.19 111-21.19ZM161.71-21.19L161.71 0 156.9 0 156.9-21.19 143.49-21.19 143.49 0 138.71 0 138.71-36.01 143.49-36.01 143.49-21.41Q143.54-22.36 143.93-23.21 144.32-24.05 144.97-24.67 145.62-25.29 146.47-25.65 147.33-26 148.3-26L148.3-26 156.9-26Q157.9-26 158.78-25.62 159.66-25.24 160.3-24.6 160.95-23.95 161.33-23.07 161.71-22.19 161.71-21.19L161.71-21.19ZM180.7-35.01L185.7-35.01 199.2 0 194.2 0 191.1-8.06 175.3-8.06 172.2 0 167.2 0 180.7-35.01ZM183.21-28.49L177.21-13.06 189.17-13.06 183.21-28.49ZM205.21-35.01L210.21-35.01 210.21 0 205.21 0 205.21-35.01Z" opacity="1" transform="matrix(1,0,0,1,0,0)" fill="black" class="wordmark-text-0" id="SvgjsPath1765"></path></svg></g></svg></g></svg></g></svg></g><g><svg viewBox="0 0 94.98677474081057 94.98677474081057" height="94.98677474081057" width="94.98677474081057"><g><svg xmlns="http://www.w3.org/2000/svg" xml:space="preserve" viewBox="5 5 90 90" x="0" y="0" height="94.98677474081057" width="94.98677474081057" class="icon-icon-0" data-fill-palette-color="accent" id="SvgjsSvg1764"><path d="M53.75 5C42.731 5 32.373 9.291 24.582 17.082l-7.5 7.5C9.291 32.373 5 42.731 5 53.75s4.291 21.377 12.082 29.168S35.231 95 46.25 95s21.377-4.291 29.168-12.082l7.5-7.5C90.709 67.627 95 57.269 95 46.25s-4.291-21.377-12.082-29.168S64.769 5 53.75 5m18.133 74.383c-14.135 14.133-37.131 14.133-51.266 0-14.134-14.134-14.134-37.132 0-51.266 7.067-7.066 16.35-10.601 25.633-10.601s18.565 3.534 25.633 10.601c14.134 14.134 14.134 37.132 0 51.266m14.975-18.389a42 42 0 0 0 0.642-7.244c0-11.019-4.291-21.377-12.082-29.168S57.269 12.5 46.25 12.5c-2.455 0-4.875 0.225-7.243 0.642a36.3 36.3 0 0 1 14.743-3.126c9.283 0 18.565 3.534 25.633 10.601 10.898 10.899 13.384 27.065 7.475 40.377" fill="white"></path><path d="M46.25 22.5a31.07 31.07 0 0 0-17.51 5.38 2.4 2.4 0 0 0-0.246 0.175C20.349 33.701 15 43.11 15 53.75 15 70.981 29.019 85 46.25 85c10.641 0 20.052-5.35 25.698-13.497q0.094-0.117 0.172-0.241A31.08 31.08 0 0 0 77.5 53.75c0-17.231-14.019-31.25-31.25-31.25m0 57.5C31.775 80 20 68.225 20 53.75c0-4.236 1.015-8.238 2.805-11.784a31.5 31.5 0 0 0-0.305 4.284c0 17.231 14.019 31.25 31.25 31.25 1.443 0 2.872-0.111 4.284-0.305A26.1 26.1 0 0 1 46.25 80m21.921-11.834A26.1 26.1 0 0 1 53.75 72.5c-14.475 0-26.25-11.775-26.25-26.25a26.1 26.1 0 0 1 4.334-14.421A26.1 26.1 0 0 1 46.25 27.5c14.475 0 26.25 11.775 26.25 26.25a26.1 26.1 0 0 1-4.329 14.416" fill="white"></path></svg></g></svg></g></svg></g></svg></g><defs><mask></mask></defs></svg><rect width="395.52" height="74.1400272105926" fill="black" stroke="none" visibility="hidden"></rect></g></mask><linearGradient x1="0" x2="1" y1="0.5" y2="0.5" id="47d493e1-38a5-4ff4-8a28-47213dbd539a"><stop stop-color="#f00b51" offset="0"></stop><stop stop-color="#730062" offset="1"></stop></linearGradient><rect width="395.52" height="74.1400272105926" fill="url(#47d493e1-38a5-4ff4-8a28-47213dbd539a)" mask="url(#8a9987fb-7eb2-4376-8f65-6216aa6ed2e0)" data-fill-palette-color="accent"></rect></svg><rect width="395.52" height="74.1400272105926" fill="none" stroke="none" visibility="hidden"></rect></g></svg></g></svg>